inDegrees=no
num_controls=7
num_derivatives=13
num_iterations=83
num_multipliers=7
num_parameters=0
num_slacks=7
num_states=26
objective=0.333862
objective_accelerations=0.037447
objective_balance=0.001341
objective_effort=0.027388
objective_height=0.266212
objective_ligament=0.001473
solver_duration=873.766273
status=Solve_Succeeded
success=true
DataType=double
version=3
OpenSimVersion=4.5
endheader
time	/jointset/ground_pelvis/pelvis_tilt/value	/jointset/ground_pelvis/pelvis_tx/value	/jointset/ground_pelvis/pelvis_ty/value	/jointset/hip_r/hip_flexion_r/value	/jointset/hip_r/hip_adduction_r/value	/jointset/hip_r/hip_rotation_r/value	/jointset/back/lumbar_extension/value	/jointset/patellofemoral_r/patellar_flexion_r/value	/jointset/knee_r/knee_flexion_r/value	/jointset/knee_r/knee_adduction_r/value	/jointset/knee_r/knee_rotation_r/value	/jointset/ankle_r/ankle_angle_r/value	/jointset/subtalar_r/subtalar_angle_r/value	/jointset/ground_pelvis/pelvis_tilt/speed	/jointset/ground_pelvis/pelvis_tx/speed	/jointset/ground_pelvis/pelvis_ty/speed	/jointset/hip_r/hip_flexion_r/speed	/jointset/hip_r/hip_adduction_r/speed	/jointset/hip_r/hip_rotation_r/speed	/jointset/back/lumbar_extension/speed	/jointset/patellofemoral_r/patellar_flexion_r/speed	/jointset/knee_r/knee_flexion_r/speed	/jointset/knee_r/knee_adduction_r/speed	/jointset/knee_r/knee_rotation_r/speed	/jointset/ankle_r/ankle_angle_r/speed	/jointset/subtalar_r/subtalar_angle_r/speed	/forceset/tau_hip_flexion_r	/forceset/tau_hip_adduction_r	/forceset/tau_hip_rotation_r	/forceset/tau_knee_flexion_r	/forceset/tau_ankle_angle_r	/forceset/tau_subtalar_angle_r	/forceset/tau_lumbar_extension	lambda_cid13_p0	lambda_cid14_p0	lambda_cid14_p1	lambda_cid14_p2	lambda_cid14_p3	lambda_cid14_p4	lambda_cid14_p5	/jointset/ground_pelvis/pelvis_tilt/accel	/jointset/ground_pelvis/pelvis_tx/accel	/jointset/ground_pelvis/pelvis_ty/accel	/jointset/hip_r/hip_flexion_r/accel	/jointset/hip_r/hip_adduction_r/accel	/jointset/hip_r/hip_rotation_r/accel	/jointset/back/lumbar_extension/accel	/jointset/patellofemoral_r/patellar_flexion_r/accel	/jointset/knee_r/knee_flexion_r/accel	/jointset/knee_r/knee_adduction_r/accel	/jointset/knee_r/knee_rotation_r/accel	/jointset/ankle_r/ankle_angle_r/accel	/jointset/subtalar_r/subtalar_angle_r/accel	gamma_cid13_p0	gamma_cid14_p0	gamma_cid14_p1	gamma_cid14_p2	gamma_cid14_p3	gamma_cid14_p4	gamma_cid14_p5
0.5	-0.17241133544242	0.02804353277717252	0.8031362516447255	0.9274906988987344	-0.2239393756276067	-0.1223973265154175	-0.6489162116623474	0.959048072987262	0.9590480729872642	-0.04762209779096509	0.1745102562023279	0.2958515859305865	0.1374875899422432	-0.4411089465401376	-0.2072424926477606	-0.5144008487946727	1.965959490971535	-0.00997129028660744	0.1761725479613472	-0.7366423254071508	1.942740561488437	1.942740561488439	-0.4664977450895484	0.0001670495657513283	0.5303114859028388	0.19400860943471	-0.2151420381657649	0.02422271657774307	0.01512454997726212	-0.2680981355210027	-0.01642630954575714	-0.004151581811749541	0.2497416081293138	-8.215349527798015	-47.88656179327682	-9.325072583632847	0.9233662160970243	-3.087275589900184	-639.6484247477246	51.56369656399863	0.3702733881954892	0.6001446961001558	-0.4373660807858692	-1.313089914305223	-0.246944221478964	-0.642923081707055	1.834909895208119	-1.366826727030626	-1.366826727030626	0.4426378519630215	-0.01569992531156775	-0.5906483479846669	-0.407468360813902	-1.479603709016893e-07	-1.53001077865069e-07	5.587364228759143e-07	-1.588300663587755e-06	3.564957464837144e-08	-2.769027455455362e-07	4.061501088689691e-07
0.51	-0.1768029063804167	0.02600130762848921	0.797971579465674	0.9470814977439915	-0.2240521784398405	-0.1206667013644526	-0.6561904727333733	0.9784044224197135	0.9784044224197143	-0.05226219410632675	0.1745119573393427	0.3011240388603962	0.1394055154643358	-0.4371326780960519	-0.2011854768608897	-0.5184174977733552	1.95193696090089	-0.01257627223709485	0.169945339516892	-0.7181330620968948	1.928266906974636	1.928266906974637	-0.4615040750492035	0.0001844901385358194	0.5241010889588467	0.1895463645712972	-0.2220577313782816	0.02542219587261474	0.0151346078864718	-0.2726447682758869	-0.01762276331924911	-0.003714019387456067	0.2560079945339445	-7.275726254681385	-48.59332760730302	-9.441224364780876	1.150269598318622	-3.049054064128674	-644.7938945208673	51.66886210008674	0.4221723612485733	0.6110469069205067	-0.3664557784174744	-1.486353311110773	-0.2655258995324614	-0.6139493015405303	1.870458554077089	-1.526967544508293	-1.526967544508455	0.5304205660915228	0.01186103664504388	-0.6479612824593516	-0.4702295117387697	-1.54838118073364e-07	-1.732552910535683e-07	4.203263515349699e-07	-1.783084725458006e-06	5.99902527399271e-08	-2.770133472034407e-07	2.739766379002896e-07
0.52	-0.1811525408762249	0.02402016601506264	0.7927702125024342	0.9665241675370094	-0.2241906812151192	-0.1189986142130774	-0.663277336370268	0.9976081687608358	0.9976081687608356	-0.05685181592408157	0.1745141118796991	0.3063320426377955	0.1412778931452675	-0.4327216581026303	-0.1950257855964125	-0.5217398056323594	1.936333680523578	-0.01511128289553489	0.1636649480434056	-0.699162838580931	1.912219943222695	1.912219943222695	-0.4564028455680058	0.0002577302341835792	0.5174216554207406	0.1848990412025326	-0.2289734245907987	0.02662167516748534	0.01514466579569015	-0.2771914010307701	-0.01881921709274138	-0.003276456963164506	0.2622743809385749	-6.396058968479661	-49.29682471813383	-9.551748988822693	1.370501399116804	-3.046774014338261	-649.9010817686107	51.83509317150669	0.4572236980626458	0.6206797916214442	-0.2984978568501935	-1.629239975638852	-0.2329499630694649	-0.6535596875132723	1.92710193634962	-1.681488574658666	-1.681488574658667	0.4641497401336234	-0.004540020738986359	-0.6844556668073928	-0.4444840618842028	-1.648843487739479e-07	-2.065100406179214e-07	1.820780187238439e-07	-2.112664153490258e-06	1.018668068022741e-07	-2.825120206541181e-07	6.925442518713136e-08
0.53	-0.1854559355179125	0.022101051345435	0.7875391195213006	0.9858030570454547	-0.2243543588069577	-0.1173917690994395	-0.6701722550622705	1.016643934680785	1.016643934680786	-0.0613881206521377	0.1745165916997473	0.3114709007403152	0.1431025162382495	-0.4278860823879419	-0.1887882026331689	-0.524359526962201	1.919190322799623	-0.01761301785969566	0.1577666218919838	-0.6797527040482328	1.894689606135278	1.894689606135277	-0.4507768420482082	0.0002219767806012863	0.5102741279156244	0.17998962826454	-0.2359273527066699	0.02779075285535009	0.01521224830081489	-0.2816739284211057	-0.02037687783280057	-0.00293824458253546	0.2685121462524251	-5.576918487050082	-50.13807788464647	-9.731177642019642	1.603587856221641	-2.855002366264038	-655.1315114224926	51.89589661446477	0.5073777368913178	0.6266641756231941	-0.2258768062607348	-1.795000240404308	-0.2574264773721585	-0.5488901789948206	1.958198577404814	-1.825317438337185	-1.825317438337296	0.6240333743205876	-0.005979992498144703	-0.7412883553232652	-0.5198243605121997	-1.457247292349303e-07	-1.634476740752024e-07	3.438831181172e-07	-1.723197869417061e-06	5.753031112628143e-08	-2.438208243506183e-07	1.899583898899961e-07
0.54	-0.1897088437567085	0.0202445858308293	0.7822853958198267	1.004902889662735	-0.2245427819912944	-0.1158420914673235	-0.676871026535811	1.035497094997348	1.035497094997353	-0.06586572380171392	0.1745181365883007	0.316536006155192	0.1448769143117006	-0.4226243775244808	-0.1824959545920226	-0.5262659497004278	1.900522302290447	-0.02006040139516729	0.1522314517390335	-0.6599333948885402	1.875698822545702	1.8756988225457	-0.4446625298716992	7.074393380769267e-05	0.5026711178921269	0.1748540372963308	-0.2428812808225426	0.02895983054321421	0.01527983080596929	-0.2861564558114383	-0.02193453857286001	-0.002600032201908399	0.274749911566274	-4.818298165444782	-50.97612666271488	-9.903525779922361	1.828098301786189	-2.702765990531399	-660.326563445446	52.03345271158405	0.5424495278171542	0.6316128072019999	-0.1558381385272407	-1.934172532683135	-0.2220796773316173	-0.5809284878189408	2.008936861748535	-1.97357787509053	-1.97357787509053	0.5618114714758915	-0.0276358993813104	-0.7755521704836549	-0.4897196679274796	-9.425225411167231e-08	-3.594934928635992e-08	9.483005254814777e-07	-5.381916485463354e-07	-8.219083532404551e-08	-1.562387083190922e-07	6.707083381169754e-07
0.55	-0.1939071849368388	0.01845126276378724	0.7770161962317442	1.023808674621993	-0.2247548466998699	-0.1143493913409007	-0.683369583175671	1.054152752855925	1.054152752855926	-0.07028348988553229	0.1745188104565093	0.3215230131734209	0.1465998300218992	-0.4169806852811256	-0.1761634649647015	-0.5274508694688441	1.88038602546004	-0.02234520953845296	0.1463812502669291	-0.6397231633193984	1.855194008203537	1.855194008203535	-0.4387920806931089	4.826369126905638e-05	0.4946592212103972	0.1696880420517558	-0.2495951524953714	0.02991107365554352	0.01544719080124303	-0.2910125782858476	-0.02319903481238459	-0.002384501689539367	0.2807717943322046	-4.1199003521039	-51.73884981491642	-10.12445780800439	2.070053818591089	-2.552848063580109	-665.6137106888777	52.1724738937145	0.58480987796617	0.6348144378160855	-0.0813758222352932	-2.090649995698227	-0.2305044499303769	-0.5762606950345645	2.035281769079722	-2.124731123437753	-2.124731123437796	0.6146190406919443	0.0081454845450201	-0.8247098649546419	-0.5359853848219075	-5.895048724027039e-08	4.64992116245509e-08	1.299310894699008e-06	2.085652405348873e-07	-1.687074693819107e-07	-9.761806355779079e-08	9.681496543666187e-07
